<?xml version="1.0" encoding="UTF-8" standalone="no"?>
<svg
   xmlns:dc="http://purl.org/dc/elements/1.1/"
   xmlns:cc="http://creativecommons.org/ns#"
   xmlns:rdf="http://www.w3.org/1999/02/22-rdf-syntax-ns#"
   xmlns:svg="http://www.w3.org/2000/svg"
   xmlns="http://www.w3.org/2000/svg"
   xmlns:sodipodi="http://sodipodi.sourceforge.net/DTD/sodipodi-0.dtd"
   xmlns:inkscape="http://www.inkscape.org/namespaces/inkscape"
   id="svg2"
   sodipodi:docname="icon.svg"
   viewBox="0 0 439.99999 225.00001"
   version="1.1"
   inkscape:version="0.92.3 (2405546, 2018-03-11)"
   width="440"
   height="225">
  <defs
     id="defs22" />
  <sodipodi:namedview
     id="namedview10"
     bordercolor="#666666"
     inkscape:pageshadow="2"
     guidetolerance="10"
     pagecolor="#ffffff"
     gridtolerance="10"
     inkscape:window-maximized="1"
     inkscape:zoom="1.2685914"
     objecttolerance="10"
     borderopacity="1"
     inkscape:current-layer="svg2"
     inkscape:cx="540.98932"
     inkscape:cy="575.52243"
     inkscape:window-y="-13"
     inkscape:window-x="-13"
     inkscape:window-width="3840"
     showgrid="false"
     inkscape:pageopacity="0"
     inkscape:window-height="2055"
     units="px" />
  <metadata
     id="metadata8">
    <rdf:RDF>
      <cc:Work>
        <dc:format>image/svg+xml</dc:format>
        <dc:type
           rdf:resource="http://purl.org/dc/dcmitype/StillImage" />
        <cc:license
           rdf:resource="http://creativecommons.org/publicdomain/zero/1.0/" />
        <dc:publisher>
          <cc:Agent
             rdf:about="http://openclipart.org/">
            <dc:title>Openclipart</dc:title>
          </cc:Agent>
        </dc:publisher>
        <dc:title></dc:title>
      </cc:Work>
      <cc:License
         rdf:about="http://creativecommons.org/publicdomain/zero/1.0/">
        <cc:permits
           rdf:resource="http://creativecommons.org/ns#Reproduction" />
        <cc:permits
           rdf:resource="http://creativecommons.org/ns#Distribution" />
        <cc:permits
           rdf:resource="http://creativecommons.org/ns#DerivativeWorks" />
      </cc:License>
    </rdf:RDF>
  </metadata>
  <g
     id="g4056"
     transform="matrix(1.32,0,0,1.32,119.2424,11.720755)">
    <circle
       r="78"
       cx="78"
       cy="78"
       style="fill:#0099ff"
       id="circle4" />
    <path
       d="m 8,78 c 0,15.6 5,29.8 13.6,41.4 L 18.4,97.2 Z M 23,34.6 32.2,32.4 C 40,21 51,15 61,13.2 L 45.2,24.2 60.8,20.4 72,14.2 68.8,8.6 C 50.4,11 34,20.6 23,34.6 Z m 10.2,43.2 6.6,13.2 19.6,1.8 10.6,40 h 13 l 14.8,-18 -0.8,-11.2 c 6.4,-5 11.4,-11.2 13.4,-19.2 l -10,2.4 -13,-20.4 3,-2 12.8,18 12.6,-11 c -6.6,-0.8 -11,-4 -12.8,-9.6 l 22.8,3.6 8.2,16.8 3.6,-22.4 10.2,12 C 145.2,42.2 124,17.8 96,10.4 96,17.2 92.2,22.8 86.8,26 l -7.2,-4.2 -13.8,8 4.8,4.6 7.4,-8.8 -1.4,10.8 c -9,0 -13.4,1.4 -19,4.4 l -1.2,5.6 -6.2,-1.4 -2.6,7 5.4,1.6 c 3,-3.8 5.4,-6.2 11.2,-7.6 l 6,6.6 -3.6,1.2 2.2,1.8 3.2,-3.8 -4.6,-6.4 c 4.6,0 7.2,2.8 8.8,9.8 l 8.2,-12 10,4.2 -1,2.6 -11.8,1 v 4.4 l 9,0.6 -2.8,7.2 C 71.4,63.2 66.6,62.8 63.2,55.4 L 49.6,54.6 c -10,6 -15,13.8 -16.4,23.2 z m 19.4,-41.4 8,2 v -8 z m 44.4,7.8 4,-2.2 5.4,11.2 -3.6,0.8 z m 2.2,79.8 3.6,1.4 6,-13.8 -7.6,4.8 z"
       inkscape:connector-curvature="0"
       style="fill:#94ba32"
       id="path6" />
    <g
       id="g42"
       transform="matrix(1.2,0,0,1.2,15.817797,-1230.8612)">
      <path
         id="path38"
         transform="translate(0,1028.4)"
         d="M 12,0 C 7.5817,0 4,3.5817 4,8 c 0,1.421 0.3816,2.75 1.0312,3.906 0.1079,0.192 0.221,0.381 0.3438,0.563 L 12,24 18.625,12.469 c 0.102,-0.151 0.19,-0.311 0.281,-0.469 l 0.063,-0.094 C 19.618,10.75 20,9.421 20,8 20,3.5817 16.418,0 12,0 Z m 0,4 c 2.209,0 4,1.7909 4,4 0,2.209 -1.791,4 -4,4 C 9.7909,12 8,10.209 8,8 8,5.7909 9.7909,4 12,4 Z"
         inkscape:connector-curvature="0"
         style="fill:#e74c3c" />
      <path
         id="path40"
         transform="translate(0,1028.4)"
         d="M 12,3 C 9.2386,3 7,5.2386 7,8 c 0,2.761 2.2386,5 5,5 2.761,0 5,-2.239 5,-5 0,-2.7614 -2.239,-5 -5,-5 z m 0,2 c 1.657,0 3,1.3431 3,3 0,1.6569 -1.343,3 -3,3 C 10.343,11 9,9.6569 9,8 9,6.3431 10.343,5 12,5 Z"
         inkscape:connector-curvature="0"
         style="fill:#c0392b" />
    </g>
    <path
       id="path3929"
       d="m 156.32556,123.24578 c 0,-17.12775 -13.88362,-31.010254 -31.00937,-31.010254 -17.12662,0 -31.010365,13.882504 -31.010365,31.010254 0,17.12512 13.883745,31.00875 31.010365,31.00875 17.12575,0 31.00937,-13.88363 31.00937,-31.00875 z"
       style="fill:#ffffff;stroke-width:0.125"
       inkscape:connector-curvature="0" />
    <path
       id="path3931"
       d="m 111.58282,113.93416 c 0,-1.73938 0.55837,-3.50188 1.67537,-5.28713 1.11662,-1.78525 2.74663,-3.26375 4.88888,-4.43575 2.14237,-1.17163 4.64175,-1.75775 7.49812,-1.75775 2.65475,0 4.99875,0.49012 7.03125,1.46937 2.0325,0.97975 3.60225,2.31188 4.71037,3.99626 1.10763,1.68487 1.66163,3.51562 1.66163,5.49312 0,1.5565 -0.31587,2.92088 -0.94763,4.09237 -0.63174,1.172 -1.38274,2.18363 -2.25225,3.03488 -0.86987,0.8515 -2.43074,2.28438 -4.68287,4.2985 -0.62263,0.56775 -1.12187,1.06687 -1.49687,1.497 -0.37551,0.43037 -0.65488,0.824 -0.83775,1.18087 -0.18325,0.35713 -0.32538,0.71413 -0.42575,1.07126 -0.10088,0.35687 -0.25188,0.98437 -0.45313,1.88137 -0.348,1.9045 -1.43762,2.8565 -3.26837,2.8565 -0.95225,0 -1.75351,-0.31113 -2.40325,-0.93388 -0.65013,-0.62237 -0.975,-1.54712 -0.975,-2.774 0,-1.53812 0.23775,-2.87024 0.71412,-3.99624 0.476,-1.12625 1.10762,-2.11501 1.89513,-2.96626 0.78699,-0.8515 1.84924,-1.863 3.18599,-3.03499 1.17163,-1.02525 2.01876,-1.79901 2.54063,-2.32088 0.52187,-0.52188 0.96125,-1.10288 1.31838,-1.74412 0.357,-0.64075 0.53562,-1.33638 0.53562,-2.08738 0,-1.46475 -0.545,-2.70062 -1.63425,-3.70787 -1.08962,-1.00675 -2.49512,-1.51063 -4.216,-1.51063 -2.0145,0 -3.49762,0.50813 -4.4495,1.52438 -0.95225,1.01625 -1.75775,2.51312 -2.417,4.49062 -0.62262,2.06937 -1.80375,3.10362 -3.54312,3.10362 -1.02575,0 -1.89088,-0.36137 -2.5955,-1.08487 -0.70488,-0.72325 -1.05725,-1.506 -1.05725,-2.34837 z m 13.40325,30.10249 c -1.11713,0 -2.09213,-0.36187 -2.92513,-1.085 -0.83337,-0.723 -1.24975,-1.73462 -1.24975,-3.03487 0,-1.15363 0.4025,-2.12388 1.2085,-2.91138 0.8055,-0.78712 1.79425,-1.181 2.96625,-1.181 1.15363,0 2.12388,0.39388 2.91138,1.181 0.787,0.7875 1.181,1.75775 1.181,2.91138 0,1.28187 -0.412,2.289 -1.236,3.02125 -0.824,0.73225 -1.776,1.09862 -2.85625,1.09862 z"
       style="fill:#000000;stroke-width:0.125"
       inkscape:connector-curvature="0" />
  </g>
</svg>
